<svg xmlns="http://www.w3.org/2000/svg" viewBox="0 0 192 192">
    <path fill="#FEFEFE" d="m34.367-.154 3.377-.026 3.707-.013 3.903-.025c4.277-.026 8.553-.041 12.83-.055L62.61-.29C68.753-.31 74.896-.33 81.039-.34c8.783-.016 17.565-.05 26.348-.107 6.185-.038 12.37-.058 18.556-.063 3.688-.004 7.376-.016 11.064-.048 4.126-.036 8.251-.032 12.378-.024l3.651-.05c11.784.086 21.245 3.857 29.765 12.02 5.45 6.476 9.304 14.479 9.353 22.98l.026 3.377.013 3.707.025 3.903c.026 4.277.041 8.553.055 12.83l.017 4.426c.021 6.143.04 12.286.051 18.429.016 8.783.05 17.565.107 26.348.038 6.185.058 12.37.063 18.556.004 3.688.016 7.376.048 11.064.036 4.126.032 8.251.024 12.378l.05 3.651c-.086 11.784-3.857 21.245-12.02 29.765-6.476 5.45-14.479 9.304-22.98 9.353l-3.377.026-3.707.013-3.903.025c-4.277.026-8.553.041-12.83.055l-4.426.017c-6.143.021-12.286.04-18.429.051-8.783.016-17.565.05-26.348.107-6.185.038-12.37.058-18.556.063-3.688.004-7.376.016-11.064.048-4.126.036-8.251.032-12.378.024l-3.651.05c-11.784-.086-21.245-3.857-29.765-12.02-5.45-6.476-9.304-14.479-9.353-22.98l-.026-3.377-.013-3.707-.025-3.903c-.026-4.277-.041-8.553-.055-12.83l-.017-4.426c-.021-6.143-.04-12.286-.051-18.429-.016-8.783-.05-17.565-.107-26.348-.038-6.185-.058-12.37-.063-18.556-.004-3.688-.016-7.376-.048-11.064-.036-4.126-.032-8.251-.024-12.378l-.05-3.651c.086-11.784 3.857-21.245 12.02-29.765 6.476-5.45 14.479-9.304 22.98-9.353Z"/>
    <path fill="#73B222" d="m117 33 2.977.996C136.687 40.236 149.28 53.12 157 69c6.132 15.358 7.348 32.212 2 48l-.773 2.496c-6.086 17.446-19.842 29.886-36.04 37.895C107.299 163.626 89.267 164.395 74 159c-16.4-6.812-30.082-17.851-38-34-7.202-17.79-9.05-36.437-1.523-54.555 7.682-16.806 20.482-29.829 37.746-36.734C86.633 28.747 102.478 27.976 117 33Z"/>
    <path fill="#FCFDFB" d="m99 73 13-.5c2.005-.11 2.005-.11 4.05-.22 5.79-.108 10.19.043 14.766 3.841 4.776 5.757 4.319 12.29 4.121 19.442l.069 3.904c-.113 10.459-.113 10.459-3.662 14.908-5.381 4.342-12.25 3.36-18.781 3.063L99 117V73Z"/>
    <path fill="#FAFCF7" d="m65.156 72.469 3.598-.016 3.746.047 3.746-.047 3.598.016 3.287.013C86.647 73.117 87.836 74.21 90 77c.513 3.098.186 5.835 0 9h-9v-4H64v26h17v-4h-4c-.345-3.108-.233-4.625 1.438-7.313 2.876-1.894 3.878-1.874 7.222-1.792l2.461.046L90 95c.087 3.104.14 6.208.188 9.313l.076 2.67.029 2.568.048 2.364C90 114 90 114 88.938 115.76c-2.936 1.879-5.862 1.61-9.231 1.533l-2.14-.013a710.601 710.601 0 0 1-6.754-.093c-1.528-.015-3.056-.028-4.584-.04-3.744-.034-7.486-.085-11.229-.147a1871.73 1871.73 0 0 1-.22-16.87 755.75 755.75 0 0 0-.082-5.738c-.048-2.75-.071-5.5-.089-8.251l-.062-2.59c-.002-3.74.03-5.896 2.093-9.09 3.014-1.866 4.978-1.978 8.516-1.992Z"/>
    <path fill="#76B427" d="M108 82c12 0 12 0 15.75 2.063 3.535 4.387 3.065 10.05 2.813 15.41-.51 3.189-.814 4.984-2.813 7.465C120 109 120 109 108 109V82Z"/>
</svg>
